<svg xmlns="http://www.w3.org/2000/svg" xmlns:xlink="http://www.w3.org/1999/xlink" width="87" height="41" viewBox="0 0 87 41"><defs><path id="kzeha" d="M194.82 42h-14.56V20.19h5.47v17.65h9.09zm23.38-10.9c0 3.53-.95 6.3-2.83 8.32-1.89 2.02-4.47 3.03-7.75 3.03-3.3 0-5.87-1.02-7.75-3.06-1.87-2.05-2.81-4.81-2.81-8.29 0-3.5.94-6.28 2.81-8.31 1.88-2.04 4.46-3.06 7.75-3.06 3.28 0 5.86 1.02 7.75 3.04 1.88 2.03 2.83 4.8 2.83 8.33zm-5.66-.01c0-1.3-.13-2.4-.4-3.32a6.84 6.84 0 0 0-1.08-2.25 4.16 4.16 0 0 0-3.43-1.67c-.67 0-1.28.12-1.83.36a4.4 4.4 0 0 0-1.58 1.28 6.66 6.66 0 0 0-1.09 2.26c-.28.93-.42 2.05-.42 3.35 0 1.34.13 2.45.4 3.33.26.89.62 1.63 1.08 2.22.47.6 1 1.04 1.6 1.3a4.58 4.58 0 0 0 3.72-.03c.6-.28 1.13-.71 1.57-1.3.47-.63.83-1.37 1.08-2.22.25-.84.38-1.95.38-3.31zM241 40.75c-.96.4-2.2.78-3.73 1.15a19.1 19.1 0 0 1-4.52.55c-3.42 0-6.16-.98-8.2-2.96-2.03-1.98-3.05-4.78-3.05-8.42 0-3.42 1.02-6.15 3.06-8.22 2.03-2.06 4.82-3.09 8.35-3.09 1.83 0 3.31.18 4.46.52 1.14.35 2.32.82 3.54 1.42v5.11h-.5l-1.13-.87a9.61 9.61 0 0 0-3.34-1.77 7.59 7.59 0 0 0-4.84.1 5.82 5.82 0 0 0-3.44 3.58 8.9 8.9 0 0 0-.5 3.13c0 2.55.64 4.43 1.92 5.64 1.28 1.21 3.02 1.82 5.24 1.82a18.78 18.78 0 0 0 1.38-.06V34.1h-4.24v-4.08H241zm25.3-9.65c0 3.53-.94 6.3-2.83 8.32-1.88 2.02-4.47 3.03-7.75 3.03-3.29 0-5.87-1.02-7.75-3.06-1.87-2.05-2.8-4.81-2.8-8.29 0-3.5.93-6.28 2.8-8.31 1.88-2.04 4.46-3.06 7.75-3.06 3.28 0 5.87 1.02 7.75 3.04 1.89 2.03 2.83 4.8 2.83 8.33zm-5.66-.01c0-1.3-.13-2.4-.4-3.32a6.85 6.85 0 0 0-1.07-2.25 4.16 4.16 0 0 0-3.43-1.67c-.68 0-1.29.12-1.83.36a4.4 4.4 0 0 0-1.59 1.28 6.66 6.66 0 0 0-1.09 2.26c-.28.93-.41 2.05-.41 3.35 0 1.34.13 2.45.4 3.33.25.89.62 1.63 1.08 2.22.46.6 1 1.04 1.6 1.3a4.58 4.58 0 0 0 3.71-.03c.6-.28 1.13-.71 1.57-1.3.47-.63.83-1.37 1.08-2.22.26-.84.38-1.95.38-3.31zm-69.73 19.98l-2.07 8.18h-1.27l-2-6.3-1.99 6.3h-1.27l-2.09-8.18h1.44l1.44 6.33 1.94-6.33h1.13l2 6.33 1.36-6.33zm2.4 8.18h-1.38v-8.18h1.38zm.1-9.55h-1.57v-1.43h1.56zm3.06 9.55h-1.37v-11.4h1.37zm3.17 0h-1.38v-11.4h1.38zm12.15-4.12c0-.97-.15-1.71-.45-2.22-.3-.5-.78-.76-1.44-.76-.37 0-.75.1-1.13.27-.39.17-.74.4-1.05.66v4.69c.35.17.66.3.92.36.27.07.57.1.9.1a2 2 0 0 0 1.65-.74c.4-.5.6-1.28.6-2.36zm1.42-.1c0 1.33-.33 2.4-.98 3.22a3 3 0 0 1-2.44 1.23 3.47 3.47 0 0 1-2.07-.61l-.09.38h-1.29v-11.4h1.38v4.08c.35-.32.72-.58 1.13-.78a3 3 0 0 1 1.38-.3c.92 0 1.65.36 2.18 1.1.53.74.8 1.77.8 3.07zm4.98 4.41c-1.3 0-2.32-.37-3.04-1.1-.72-.74-1.08-1.78-1.08-3.13 0-1.34.35-2.4 1.05-3.19a3.49 3.49 0 0 1 2.74-1.18c.5 0 .96.08 1.35.22.39.15.73.38 1.02.69.3.31.52.7.68 1.15.15.45.23 1 .23 1.66v.74h-5.67c0 .95.24 1.68.72 2.18.48.5 1.14.76 1.98.76a3.87 3.87 0 0 0 1.68-.37 5.65 5.65 0 0 0 1.06-.62h.08v1.5l-.6.24a6.64 6.64 0 0 1-1.38.4c-.22.03-.49.05-.82.05zm1.61-5.2c-.01-.36-.05-.68-.13-.95-.08-.27-.2-.5-.34-.68-.16-.2-.37-.36-.62-.47-.25-.1-.56-.16-.93-.16s-.68.05-.94.16a2.23 2.23 0 0 0-1.16 1.2c-.11.26-.18.56-.2.9zm13.85 5.01h-1.38v-4.66c0-.37-.02-.72-.05-1.05-.04-.32-.1-.58-.21-.78-.11-.2-.27-.36-.47-.46-.2-.1-.47-.15-.82-.15-.34 0-.7.1-1.06.28-.36.18-.72.42-1.06.71v6.11h-1.38v-11.4h1.38v4.13c.4-.37.81-.65 1.21-.85.4-.19.82-.29 1.27-.29.8 0 1.43.27 1.89.8.45.53.68 1.3.68 2.3zm5.35.19c-1.3 0-2.32-.37-3.04-1.1-.72-.74-1.08-1.78-1.08-3.13 0-1.34.35-2.4 1.05-3.19a3.49 3.49 0 0 1 2.74-1.18c.5 0 .96.08 1.35.22.39.15.73.38 1.02.69.3.31.52.7.68 1.15.15.45.23 1 .23 1.66v.74h-5.67c0 .95.24 1.68.72 2.18.48.5 1.14.76 1.98.76a3.87 3.87 0 0 0 1.68-.37 5.65 5.65 0 0 0 1.06-.62h.08v1.5l-.6.24a6.64 6.64 0 0 1-1.38.4c-.21.03-.49.05-.82.05zm1.61-5.2c0-.36-.05-.68-.13-.95-.08-.27-.2-.5-.34-.68-.16-.2-.37-.36-.62-.47-.25-.1-.56-.16-.93-.16s-.68.05-.93.16a2.22 2.22 0 0 0-1.17 1.2c-.11.26-.18.56-.2.9zm7.02-1.7h-.07l-.33-.05h-.41c-.37 0-.74.07-1.1.23-.37.17-.72.4-1.05.72v5.81h-1.38v-8.18h1.38v1.21c.5-.44.94-.75 1.32-.94a2.46 2.46 0 0 1 1.64-.23zm4.5 6.9c-1.3 0-2.3-.37-3.03-1.1-.72-.74-1.08-1.78-1.08-3.13 0-1.34.35-2.4 1.05-3.19a3.48 3.48 0 0 1 2.74-1.18c.5 0 .95.08 1.34.22.4.15.74.38 1.03.69.3.31.52.7.67 1.15.16.45.24 1 .24 1.66v.74h-5.67c0 .95.24 1.68.72 2.18.48.5 1.14.76 1.98.76a3.87 3.87 0 0 0 1.68-.37 5.66 5.66 0 0 0 1.05-.62h.08v1.5l-.6.24a6.62 6.62 0 0 1-1.37.4c-.22.03-.5.05-.82.05zm1.62-5.2c-.01-.36-.06-.68-.13-.95-.08-.27-.2-.5-.34-.68-.16-.2-.37-.36-.62-.47-.25-.1-.56-.16-.93-.16s-.68.05-.94.16a2.22 2.22 0 0 0-1.17 1.2c-.1.26-.17.56-.2.9z"/></defs><g><g transform="translate(-180 -19)"><use fill="#333" xlink:href="#kzeha"/></g></g></svg>